<svg fill="#ffffff" height="200px" width="200px" version="1.1" id="Layer_1" xmlns="http://www.w3.org/2000/svg" xmlns:xlink="http://www.w3.org/1999/xlink" viewBox="0 0 512 512" xml:space="preserve" stroke="#ffffff"><g id="SVGRepo_bgCarrier" stroke-width="0"></g><g id="SVGRepo_tracerCarrier" stroke-linecap="round" stroke-linejoin="round"></g><g id="SVGRepo_iconCarrier"> <g> <g> <circle cx="385.217" cy="181.24" r="13.013"></circle> </g> </g> <g> <g> <circle cx="385.217" cy="228.226" r="13.013"></circle> </g> </g> <g> <g> <circle cx="408.71" cy="204.733" r="13.013"></circle> </g> </g> <g> <g> <circle cx="361.724" cy="204.733" r="13.013"></circle> </g> </g> <g> <g> <path d="M135.982,172.478h-16.656c-3.22,0-5.83,2.611-5.83,5.829v6.003c0.001,1.816,0.847,3.528,2.289,4.631l8.329,6.369 c2.09,1.599,4.992,1.599,7.082,0l8.329-6.369c1.442-1.103,2.288-2.815,2.288-4.631v-6.003 C141.813,175.087,139.202,172.478,135.982,172.478z"></path> </g> </g> <g> <g> <path d="M139.525,223.417l-8.329-6.369c-2.09-1.599-4.992-1.599-7.082,0l-8.329,6.369c-1.442,1.103-2.288,2.815-2.288,4.631v6.003 c0,3.22,2.611,5.829,5.83,5.829h16.656c3.22,0,5.831-2.611,5.831-5.829v-6.003C141.813,226.233,140.968,224.52,139.525,223.417z"></path> </g> </g> <g> <g> <path d="M155.527,192.02h-6.003c-1.816,0-3.528,0.846-4.631,2.288l-6.369,8.329c-1.599,2.09-1.599,4.992,0,7.082l6.369,8.329 c1.103,1.442,2.815,2.288,4.631,2.288h6.003c3.22,0,5.829-2.611,5.829-5.829v-16.656 C161.358,194.631,158.747,192.02,155.527,192.02z"></path> </g> </g> <g> <g> <path d="M116.785,202.637l-6.369-8.329c-1.103-1.442-2.815-2.288-4.631-2.288h-6.003c-3.22,0-5.831,2.611-5.831,5.829v16.656 c0,3.22,2.611,5.83,5.831,5.83h6.003c1.816,0,3.528-0.846,4.631-2.288l6.369-8.329 C118.384,207.631,118.384,204.728,116.785,202.637z"></path> </g> </g> <g> <g> <path d="M242.531,193.634h-42.332c-3.993,0-7.228,3.237-7.228,7.228v14.249c0,3.993,3.237,7.228,7.228,7.228h42.332 c3.993,0,7.228-3.237,7.228-7.228v-14.249C249.76,196.869,246.523,193.634,242.531,193.634z"></path> </g> </g> <g> <g> <path d="M317.137,193.634h-42.332c-3.993,0-7.228,3.237-7.228,7.228v14.249c0,3.993,3.237,7.228,7.228,7.228h42.332 c3.992,0,7.228-3.237,7.228-7.228v-14.249C324.366,196.869,321.13,193.634,317.137,193.634z"></path> </g> </g> <g> <g> <path d="M509.976,339.684l-39.021-158.733c-6.456-26.256-23.039-48.066-46.185-61.217c-2.256-19.02-18.481-33.82-38.097-33.82 h-40.641c-20.778,0-37.751,16.606-38.347,37.243H204.332c-0.596-20.637-17.569-37.243-38.348-37.243h-40.64 c-19.616,0-35.841,14.8-38.096,33.819c-23.146,13.152-39.73,34.962-46.185,61.218L2.044,339.684 c-4.447,18.092-1.583,36.832,8.064,52.77s24.924,27.164,43.016,31.612c30.182,7.418,60.737-6.241,76.084-31.229l21.922-35.695 c11.227,9.73,25.852,15.638,41.841,15.638c35.281,0,63.983-28.702,63.983-63.983c0-0.953-0.031-1.898-0.072-2.841h7.704 c-0.041,0.943-0.072,1.888-0.072,2.841c0,35.281,28.702,63.983,63.983,63.983c13.086,0,25.262-3.956,35.41-10.725l18.905,30.781 c15.222,24.787,45.671,38.706,76.085,31.23C496.241,414.883,519.155,377.031,509.976,339.684z M192.971,339.423 c-16.914,0-30.628-13.777-30.628-30.628c0-16.889,13.74-30.629,30.628-30.629c16.874,0,30.628,13.755,30.628,30.629 C223.599,325.683,209.859,339.423,192.971,339.423z M328.497,339.423c-16.888,0-30.628-13.74-30.628-30.628 c0-16.891,13.77-30.629,30.628-30.629c16.889,0,30.629,13.74,30.629,30.629C359.125,325.62,345.435,339.423,328.497,339.423z M450.932,391.674c-15.81,3.888-31.722-3.305-39.698-16.295l-24.545-39.966c3.7-8.066,5.792-17.345,5.792-26.618 c0-35.281-28.702-63.984-63.984-63.984c-21.335,0-41.009,10.709-52.749,27.788H245.72c-11.639-16.928-31.265-27.788-52.749-27.788 c-35.281,0-63.983,28.703-63.983,63.984c0,5.775,0.809,11.631,2.277,16.954l-30.48,49.631 c-7.966,12.972-23.87,20.186-39.699,16.295c-9.44-2.32-17.41-8.178-22.445-16.493s-6.529-18.094-4.207-27.534l39.021-158.733 c4.816-19.595,18.231-35.424,36.804-43.428c6.115-2.636,10.077-8.657,10.077-15.316v-5.89c0-2.762,2.247-5.009,5.009-5.009h40.64 c2.762,0,5.009,2.247,5.009,5.009v15.556c0,9.21,7.467,16.678,16.677,16.678h136.675c9.21,0,16.678-7.467,16.678-16.678v-15.556 c0-2.762,2.247-5.009,5.009-5.009h40.641c2.762,0,5.009,2.247,5.009,5.009v5.892c0,6.659,3.961,12.68,10.077,15.316 c18.572,8.003,31.987,23.832,36.805,43.428l39.021,158.732C482.375,367.133,470.418,386.884,450.932,391.674z"></path> </g> </g> </g></svg>