<?xml version="1.0" standalone="no"?>
<!DOCTYPE svg PUBLIC "-//W3C//DTD SVG 20010904//EN"
 "http://www.w3.org/TR/2001/REC-SVG-20010904/DTD/svg10.dtd">
<svg version="1.0" xmlns="http://www.w3.org/2000/svg"
 width="512.000000pt" height="512.000000pt" viewBox="0 0 512.000000 512.000000"
 preserveAspectRatio="xMidYMid meet">

<g transform="translate(0.000000,512.000000) scale(0.100000,-0.100000)"
fill="#ffffff" stroke="none">
<path d="M2495 5107 c-94 -44 -122 -161 -59 -245 38 -48 71 -59 222 -66 788
-38 1462 -454 1860 -1150 87 -152 199 -440 225 -584 6 -31 6 -32 -16 -21 -12
7 -258 161 -547 342 l-525 329 -210 208 c-224 221 -246 240 -283 240 -34 0
-72 -43 -72 -82 0 -29 30 -62 305 -338 l305 -306 -2 -1075 -3 -1076 -30 -49
c-19 -30 -49 -60 -79 -79 l-49 -30 -949 -3 c-621 -1 -962 1 -987 8 -92 24
-155 98 -173 200 -16 93 -67 133 -128 100 -63 -34 -31 -219 57 -324 81 -97
197 -146 345 -146 l91 0 156 -98 c86 -55 309 -195 496 -313 l340 -214 -60 -8
c-83 -12 -368 -1 -495 18 -644 97 -1228 482 -1571 1036 -525 846 -429 1939
235 2678 32 35 62 74 67 88 23 62 -2 146 -58 187 -36 27 -121 33 -161 12 -37
-19 -146 -141 -246 -276 -337 -453 -514 -1028 -493 -1600 7 -196 29 -344 77
-536 49 -192 93 -312 185 -500 248 -505 663 -920 1170 -1169 248 -122 496
-199 770 -241 169 -26 541 -26 710 0 562 85 1054 333 1450 731 439 440 689
974 746 1595 14 158 7 413 -16 570 -94 634 -429 1223 -929 1629 -196 160 -492
328 -730 416 -131 48 -373 109 -515 129 -166 24 -388 31 -426 13z"/>
<path d="M1839 5007 c-56 -38 -82 -84 -76 -140 8 -86 68 -142 152 -142 160 0
216 217 75 287 -49 25 -110 23 -151 -5z"/>
<path d="M1254 4750 c-140 -71 -91 -284 66 -284 56 0 91 20 128 74 81 119 -64
276 -194 210z"/>
<path d="M1705 3809 c-17 -4 -44 -22 -60 -39 l-30 -31 0 -1179 0 -1179 30 -31
c16 -17 45 -35 65 -41 23 -7 320 -9 877 -7 833 3 842 3 870 24 15 11 36 36 45
55 17 32 18 96 18 907 0 551 -4 880 -10 892 -18 34 -65 40 -331 40 l-259 0 0
271 c0 157 -4 278 -10 289 -5 10 -24 23 -41 29 -39 13 -1118 14 -1164 0z"/>
<path d="M3116 3695 c-25 -23 -26 -27 -26 -143 0 -168 -1 -167 165 -167 121 0
128 1 146 24 11 13 19 39 19 59 0 32 -11 46 -109 144 -121 120 -145 130 -195
83z"/>
</g>
</svg>
